<?xml version="1.0" standalone="no"?>
<!DOCTYPE svg PUBLIC "-//W3C//DTD SVG 20010904//EN"
 "http://www.w3.org/TR/2001/REC-SVG-20010904/DTD/svg10.dtd">
<svg version="1.0" xmlns="http://www.w3.org/2000/svg"
 width="512.000000pt" height="512.000000pt" viewBox="0 0 512.000000 512.000000"
 preserveAspectRatio="xMidYMid meet">
<metadata>
Created by potrace 1.11, written by Peter Selinger 2001-2013
</metadata>
<g transform="translate(0.000000,512.000000) scale(0.100000,-0.100000)"
fill="#000000" stroke="none">
<path d="M2400 5054 c-187 -91 -639 -296 -866 -394 -104 -44 -202 -87 -219
-94 -16 -8 -127 -53 -245 -101 -118 -48 -228 -93 -245 -100 -16 -7 -149 -59
-295 -115 -146 -56 -271 -107 -278 -115 -14 -13 -35 -98 -47 -190 -3 -27 -8
-63 -10 -80 -20 -144 -29 -306 -29 -535 0 -277 15 -483 49 -683 2 -12 9 -49
14 -82 130 -770 511 -1449 1079 -1924 88 -73 344 -261 356 -261 2 0 35 -19 72
-42 251 -152 756 -351 849 -334 18 4 94 27 168 51 856 282 1535 887 1887 1685
211 477 314 991 314 1570 0 238 -9 416 -30 560 -3 25 -8 59 -10 75 -12 97 -28
167 -42 185 -10 11 -130 63 -277 119 -567 217 -1244 505 -1730 736 -209 99
-292 135 -311 134 -11 0 -80 -30 -154 -65z m247 -145 c529 -248 987 -450 1398
-615 88 -36 169 -69 180 -74 11 -5 61 -24 110 -43 50 -19 142 -55 205 -80 63
-24 132 -51 153 -58 53 -19 53 -18 73 -194 3 -22 7 -53 9 -70 25 -166 25 -714
0 -900 -2 -16 -7 -50 -10 -75 -3 -25 -7 -56 -9 -70 -3 -14 -7 -47 -11 -74 -3
-27 -8 -52 -10 -56 -2 -3 -6 -26 -10 -50 -42 -282 -199 -715 -368 -1017 -47
-84 -221 -339 -247 -363 -3 -3 -30 -34 -60 -70 -241 -287 -635 -589 -963 -739
-34 -16 -84 -38 -111 -50 -76 -35 -216 -87 -322 -120 l-96 -30 -137 45 c-358
118 -660 280 -956 513 -117 92 -295 262 -389 371 -61 72 -198 258 -255 348
-217 344 -385 806 -447 1231 -4 25 -8 55 -10 66 -3 11 -7 45 -10 75 -3 30 -7
64 -9 75 -25 120 -24 774 0 890 3 11 7 45 10 75 3 30 7 66 10 80 3 14 6 37 7
53 1 15 6 31 12 36 6 5 67 30 136 56 178 67 772 305 875 350 17 7 136 59 265
115 129 56 260 113 290 127 30 14 107 49 170 78 119 54 230 106 360 169 41 19
76 36 77 36 2 0 42 -19 90 -41z"/>
<path d="M2440 4465 c-64 -17 -149 -61 -178 -92 -25 -28 -26 -64 -2 -143 24
-80 53 -278 54 -374 l1 -39 -75 -19 c-138 -33 -292 -101 -403 -176 l-45 -30
-40 47 c-92 109 -171 255 -217 403 -42 132 -72 144 -195 77 -161 -88 -270
-199 -349 -356 -55 -110 -41 -138 86 -178 48 -15 129 -47 178 -71 87 -42 240
-148 256 -177 5 -8 -4 -31 -26 -61 -74 -104 -152 -276 -181 -400 l-17 -75 -51
4 c-116 10 -222 28 -424 73 -35 7 -69 -16 -102 -69 -93 -151 -90 -361 7 -507
40 -60 63 -69 130 -53 88 23 228 49 288 56 33 3 81 8 108 11 37 4 47 2 47 -9
0 -8 12 -55 26 -103 31 -108 97 -251 160 -346 l47 -70 -29 -24 c-119 -100
-261 -179 -402 -224 -146 -47 -159 -75 -92 -199 57 -104 121 -183 200 -247 78
-62 209 -134 246 -134 26 0 74 43 74 66 0 27 43 141 87 228 41 84 98 170 159
242 l26 31 84 -52 c46 -29 122 -69 169 -89 98 -41 260 -87 271 -78 13 13 -6
-152 -40 -353 -2 -11 -11 -49 -21 -84 -21 -84 -14 -114 38 -150 144 -98 342
-105 500 -18 92 51 95 61 63 208 -14 68 -29 140 -31 159 -3 19 -9 58 -13 85
-4 28 -7 72 -7 99 l0 48 72 18 c148 38 287 98 391 168 l60 41 56 -70 c95 -120
172 -268 208 -403 15 -58 48 -96 83 -96 14 0 49 12 78 26 172 87 294 210 381
381 49 99 33 129 -91 168 -145 44 -295 127 -417 229 l-29 24 45 69 c84 127
165 313 183 421 l7 42 61 -5 c84 -7 229 -31 340 -56 50 -11 102 -18 114 -14
31 7 78 80 107 166 21 63 25 88 22 164 -3 50 -12 112 -22 140 -26 75 -79 153
-109 161 -14 3 -64 -3 -113 -14 -125 -30 -208 -44 -343 -57 l-56 -6 -13 63
c-25 120 -106 299 -193 427 l-30 44 34 29 c61 51 192 135 262 167 73 33 182
71 204 71 23 0 63 51 63 79 0 51 -131 257 -197 311 -88 73 -118 93 -183 129
-123 67 -154 54 -196 -79 -46 -148 -122 -287 -223 -407 l-33 -40 -84 52 c-101
64 -228 118 -349 150 l-90 23 3 69 c1 37 10 111 18 163 18 108 17 99 40 203
13 59 15 83 6 101 -14 31 -110 87 -183 108 -67 19 -186 20 -249 3z m210 -158
c56 -15 60 -21 45 -78 -7 -27 -13 -52 -13 -54 0 -6 -12 -77 -18 -110 -2 -11
-6 -45 -10 -75 -3 -30 -7 -68 -9 -85 -2 -16 -4 -38 -4 -47 -1 -16 -12 -18 -81
-18 -69 0 -80 2 -81 18 0 9 -2 28 -4 42 -1 14 -5 50 -9 80 -7 67 -33 223 -46
269 -5 19 -8 36 -7 37 1 0 22 8 47 17 49 17 134 19 190 4z m-1240 -400 c24
-62 83 -181 93 -185 4 -2 7 -8 7 -14 0 -22 110 -166 185 -243 67 -68 222 -195
238 -195 3 0 31 -16 63 -35 69 -42 106 -44 139 -10 45 45 30 102 -37 136 -55
28 -178 110 -178 119 0 8 131 83 192 109 142 60 313 91 473 86 66 -2 136 -6
155 -9 76 -12 197 -48 272 -80 80 -35 188 -95 188 -106 0 -6 -144 -103 -180
-120 -81 -39 -78 -140 5 -156 28 -5 46 0 97 29 269 151 465 375 584 667 12 30
26 56 31 57 26 9 229 -194 220 -220 -1 -5 -30 -20 -62 -33 -282 -113 -513
-316 -662 -582 -29 -51 -34 -69 -29 -97 11 -54 67 -81 116 -55 10 5 32 36 50
67 18 32 51 84 72 116 l39 58 19 -23 c29 -37 73 -118 107 -194 143 -324 109
-728 -89 -1037 l-30 -47 -24 27 c-13 15 -47 67 -76 116 -55 93 -70 107 -113
107 -33 0 -75 -44 -75 -80 0 -29 75 -161 142 -249 130 -169 330 -322 526 -403
42 -17 81 -35 86 -39 27 -23 -192 -244 -223 -225 -5 3 -12 18 -16 33 -9 39
-98 214 -136 271 -117 171 -260 304 -445 412 -81 47 -115 50 -149 14 -42 -45
-33 -92 23 -125 82 -48 192 -122 192 -128 0 -10 -96 -66 -170 -100 -155 -69
-321 -102 -495 -96 -131 4 -146 6 -250 30 -118 28 -353 133 -362 161 -3 12 65
61 150 108 37 21 72 46 77 56 28 52 -11 120 -68 120 -35 0 -174 -82 -278 -165
-164 -130 -341 -377 -396 -552 -7 -24 -18 -43 -25 -43 -35 0 -223 188 -223
224 0 2 39 20 86 41 285 122 499 314 644 579 43 77 40 115 -11 141 -54 29 -93
10 -129 -62 -8 -15 -36 -61 -63 -101 l-48 -73 -18 23 c-85 110 -165 314 -187
478 -33 255 28 536 165 748 l33 52 24 -27 c13 -15 47 -67 76 -116 67 -113 113
-135 164 -80 34 36 28 73 -25 162 -156 264 -394 462 -683 570 -16 6 -28 14
-28 19 0 32 199 227 223 219 5 -1 17 -24 27 -50z m-350 -1241 c58 -9 124 -17
148 -19 23 -3 46 -8 50 -11 11 -11 8 -156 -3 -157 -75 -5 -291 -37 -358 -53
l-58 -14 -17 32 c-11 22 -16 56 -16 116 0 60 5 94 16 116 l17 32 58 -14 c32
-8 105 -20 163 -28z m3249 -28 c6 -26 11 -63 11 -83 0 -52 -20 -126 -36 -132
-8 -3 -65 4 -127 16 -61 12 -139 24 -172 27 -33 3 -69 7 -80 9 -11 2 -27 4
-35 4 -12 1 -15 17 -15 81 0 73 2 80 20 81 11 0 29 2 40 4 11 2 49 7 84 11 36
3 112 16 170 29 120 25 123 24 140 -47z m-1668 -1375 c0 -10 2 -31 4 -48 2
-16 6 -57 10 -90 7 -62 42 -255 51 -279 4 -10 -14 -19 -60 -31 -67 -18 -145
-16 -202 5 -30 12 -30 7 1 170 8 47 18 114 21 150 4 36 8 72 9 80 2 8 4 25 4
38 1 21 5 22 81 22 69 0 80 -2 81 -17z"/>
<path d="M2554 3344 c-82 -29 -154 -132 -154 -219 0 -132 111 -245 240 -245
97 0 195 71 226 162 64 193 -119 370 -312 302z m141 -164 c24 -20 29 -74 10
-104 -44 -66 -145 -29 -145 53 0 10 11 30 25 45 21 23 32 27 60 23 20 -3 42
-10 50 -17z"/>
<path d="M1991 2868 c-62 -17 -139 -75 -175 -131 -44 -68 -56 -113 -52 -195 6
-118 73 -220 181 -272 73 -35 199 -35 270 0 63 32 123 92 155 155 35 71 35
197 0 270 -31 64 -92 124 -155 154 -56 26 -165 36 -224 19z m185 -183 c46 -35
62 -71 60 -132 -3 -91 -63 -148 -155 -148 -85 1 -146 50 -158 128 -11 71 28
144 92 174 44 20 120 10 161 -22z"/>
<path d="M2940 2864 c-93 -34 -163 -101 -201 -194 -8 -21 -14 -68 -14 -115 1
-64 5 -90 25 -130 31 -64 92 -124 155 -155 67 -33 197 -35 265 -3 63 28 123
88 157 153 24 48 28 66 28 140 0 69 -5 94 -25 135 -31 64 -92 124 -154 154
-66 30 -174 37 -236 15z m149 -154 c112 -32 145 -172 63 -259 -64 -67 -157
-68 -223 -2 -66 66 -63 173 7 229 51 41 93 50 153 32z"/>
<path d="M2394 2224 c-95 -34 -162 -145 -151 -248 7 -63 27 -104 75 -150 90
-88 238 -85 330 5 148 147 47 402 -161 407 -29 0 -71 -6 -93 -14z m143 -167
c16 -16 26 -62 18 -87 -18 -57 -112 -63 -140 -10 -22 42 -19 68 12 96 22 21
35 25 62 20 19 -3 41 -11 48 -19z"/>
</g>
</svg>
